<mxfile host="app.diagrams.net" modified="2021-11-03T01:28:58.478Z" agent="5.0 (Windows NT 10.0; Win64; x64) AppleWebKit/537.36 (KHTML, like Gecko) Chrome/95.0.4638.69 Safari/537.36" etag="vk-ZZ5qIk5VzGGR3xjum" version="15.6.6" type="github">
  <diagram name="Page-1" id="2cc2dc42-3aac-f2a9-1cec-7a8b7cbee084">
    <mxGraphModel dx="1673" dy="896" grid="1" gridSize="10" guides="1" tooltips="1" connect="1" arrows="1" fold="1" page="1" pageScale="1" pageWidth="1100" pageHeight="850" background="none" math="0" shadow="0">
      <root>
        <mxCell id="0" />
        <mxCell id="1" parent="0" />
        <mxCell id="neGAcfMIuu3k36xFP6IA-1" value="" style="rounded=1;whiteSpace=wrap;html=1;fontColor=default;fillColor=default;strokeColor=default;" parent="1" vertex="1">
          <mxGeometry x="333.75" y="240" width="502.5" height="280" as="geometry" />
        </mxCell>
        <mxCell id="neGAcfMIuu3k36xFP6IA-3" value="" style="endArrow=none;html=1;rounded=0;fontColor=default;strokeColor=default;labelBackgroundColor=default;" parent="1" edge="1">
          <mxGeometry width="50" height="50" relative="1" as="geometry">
            <mxPoint x="10" y="80" as="sourcePoint" />
            <mxPoint x="1090" y="80" as="targetPoint" />
          </mxGeometry>
        </mxCell>
        <mxCell id="neGAcfMIuu3k36xFP6IA-4" value="Login" style="rounded=0;whiteSpace=wrap;html=1;fontColor=default;strokeColor=default;fillColor=default;" parent="1" vertex="1">
          <mxGeometry x="980" y="30" width="100" height="30" as="geometry" />
        </mxCell>
        <mxCell id="neGAcfMIuu3k36xFP6IA-5" value="Sign up" style="rounded=0;whiteSpace=wrap;html=1;fontColor=default;strokeColor=default;fillColor=default;" parent="1" vertex="1">
          <mxGeometry x="850" y="30" width="100" height="30" as="geometry" />
        </mxCell>
        <mxCell id="neGAcfMIuu3k36xFP6IA-6" value="HelloWorld@gmail.com" style="rounded=0;whiteSpace=wrap;html=1;fontColor=default;strokeColor=default;fillColor=default;" parent="1" vertex="1">
          <mxGeometry x="375" y="290" width="425" height="40" as="geometry" />
        </mxCell>
        <mxCell id="neGAcfMIuu3k36xFP6IA-7" value="************************" style="rounded=0;whiteSpace=wrap;html=1;fontColor=default;strokeColor=default;fillColor=default;" parent="1" vertex="1">
          <mxGeometry x="375" y="375" width="425" height="40" as="geometry" />
        </mxCell>
        <mxCell id="neGAcfMIuu3k36xFP6IA-10" value="&lt;font style=&quot;font-size: 20px&quot;&gt;Welcome to &quot;Web Page Name&quot;&lt;/font&gt;" style="text;html=1;strokeColor=none;fillColor=none;align=center;verticalAlign=middle;whiteSpace=wrap;rounded=0;fontColor=default;" parent="1" vertex="1">
          <mxGeometry x="427.5" y="160" width="315" height="60" as="geometry" />
        </mxCell>
        <mxCell id="neGAcfMIuu3k36xFP6IA-11" value="Email:" style="text;html=1;strokeColor=none;fillColor=none;align=center;verticalAlign=middle;whiteSpace=wrap;rounded=0;fontSize=20;fontColor=default;" parent="1" vertex="1">
          <mxGeometry x="375" y="260" width="60" height="30" as="geometry" />
        </mxCell>
        <mxCell id="neGAcfMIuu3k36xFP6IA-12" value="Password:" style="text;html=1;strokeColor=none;fillColor=none;align=center;verticalAlign=middle;whiteSpace=wrap;rounded=0;fontSize=20;fontColor=default;" parent="1" vertex="1">
          <mxGeometry x="390" y="345" width="60" height="30" as="geometry" />
        </mxCell>
        <mxCell id="neGAcfMIuu3k36xFP6IA-24" value="" style="rounded=0;whiteSpace=wrap;html=1;fontSize=20;strokeColor=#23445d;fillColor=#bac8d3;fontColor=default;" parent="1" vertex="1">
          <mxGeometry x="375" y="290" width="40" height="40" as="geometry" />
        </mxCell>
        <mxCell id="neGAcfMIuu3k36xFP6IA-26" value="" style="rounded=0;whiteSpace=wrap;html=1;fontSize=20;strokeColor=#23445d;fillColor=#bac8d3;fontColor=default;" parent="1" vertex="1">
          <mxGeometry x="375" y="375" width="40" height="40" as="geometry" />
        </mxCell>
        <mxCell id="neGAcfMIuu3k36xFP6IA-27" value="" style="verticalLabelPosition=bottom;verticalAlign=top;html=1;shape=mxgraph.basic.smiley;fontSize=20;fontColor=default;strokeColor=default;fillColor=default;gradientColor=none;" parent="1" vertex="1">
          <mxGeometry x="380" y="295" width="30" height="30" as="geometry" />
        </mxCell>
        <mxCell id="neGAcfMIuu3k36xFP6IA-28" value="" style="verticalLabelPosition=bottom;verticalAlign=top;html=1;shape=mxgraph.basic.6_point_star;fontSize=20;fontColor=default;strokeColor=default;fillColor=default;gradientColor=none;" parent="1" vertex="1">
          <mxGeometry x="375" y="380" width="40" height="30" as="geometry" />
        </mxCell>
        <mxCell id="neGAcfMIuu3k36xFP6IA-30" value="&lt;font style=&quot;font-size: 14px&quot;&gt;Forgot Password?&lt;/font&gt;" style="text;html=1;strokeColor=none;fillColor=none;align=center;verticalAlign=middle;whiteSpace=wrap;rounded=0;fontSize=20;fontColor=#007FFF;fontStyle=4" parent="1" vertex="1">
          <mxGeometry x="670" y="345" width="130" height="30" as="geometry" />
        </mxCell>
        <mxCell id="neGAcfMIuu3k36xFP6IA-32" value="Log In" style="rounded=0;whiteSpace=wrap;html=1;fontSize=14;fontColor=default;strokeColor=default;fillColor=default;gradientColor=none;" parent="1" vertex="1">
          <mxGeometry x="375" y="460" width="425" height="35" as="geometry" />
        </mxCell>
        <mxCell id="neGAcfMIuu3k36xFP6IA-33" value="Remember Me" style="text;html=1;strokeColor=none;fillColor=none;align=center;verticalAlign=middle;whiteSpace=wrap;rounded=0;fontSize=14;fontColor=default;" parent="1" vertex="1">
          <mxGeometry x="540" y="425" width="110" height="30" as="geometry" />
        </mxCell>
        <mxCell id="neGAcfMIuu3k36xFP6IA-34" value="" style="rounded=0;whiteSpace=wrap;html=1;fontSize=14;fontColor=default;strokeColor=default;fillColor=default;gradientColor=none;" parent="1" vertex="1">
          <mxGeometry x="530" y="435" width="10" height="10" as="geometry" />
        </mxCell>
        <mxCell id="gXTnSa_0D5osc2CIZXus-1" value="" style="endArrow=none;html=1;rounded=0;fontColor=default;strokeColor=default;labelBackgroundColor=default;" parent="1" edge="1">
          <mxGeometry width="50" height="50" relative="1" as="geometry">
            <mxPoint x="10" y="760" as="sourcePoint" />
            <mxPoint x="1090" y="760" as="targetPoint" />
          </mxGeometry>
        </mxCell>
        <mxCell id="gXTnSa_0D5osc2CIZXus-2" value="Footer" style="text;html=1;strokeColor=none;fillColor=none;align=center;verticalAlign=middle;whiteSpace=wrap;rounded=0;fontColor=default;" parent="1" vertex="1">
          <mxGeometry x="510" y="780" width="150" height="40" as="geometry" />
        </mxCell>
        <mxCell id="OpFIEKos-V-Ad2cM-_ZD-3" value="&lt;font style=&quot;font-size: 18px&quot;&gt;main page&lt;/font&gt;" style="text;html=1;strokeColor=none;fillColor=none;align=center;verticalAlign=middle;whiteSpace=wrap;rounded=0;fontColor=#007FFF;spacing=6;" vertex="1" parent="1">
          <mxGeometry x="30" y="30" width="110" height="30" as="geometry" />
        </mxCell>
        <mxCell id="OpFIEKos-V-Ad2cM-_ZD-4" value="" style="rounded=0;whiteSpace=wrap;html=1;fontColor=#007FFF;strokeColor=default;fillColor=default;" vertex="1" parent="1">
          <mxGeometry x="380" y="32.5" width="410" height="25" as="geometry" />
        </mxCell>
        <mxCell id="OpFIEKos-V-Ad2cM-_ZD-5" value="" style="rounded=0;whiteSpace=wrap;html=1;strokeColor=#23445d;fillColor=#bac8d3;fontColor=default;" vertex="1" parent="1">
          <mxGeometry x="380" y="32.5" width="30" height="25" as="geometry" />
        </mxCell>
        <mxCell id="OpFIEKos-V-Ad2cM-_ZD-8" value="" style="rounded=0;whiteSpace=wrap;html=1;fontColor=default;strokeColor=default;fillColor=default;rotation=-50;" vertex="1" parent="1">
          <mxGeometry x="380" y="43.459999999999994" width="20" height="8.08" as="geometry" />
        </mxCell>
        <mxCell id="OpFIEKos-V-Ad2cM-_ZD-6" value="" style="ellipse;whiteSpace=wrap;html=1;aspect=fixed;fontColor=default;strokeColor=default;fillColor=default;" vertex="1" parent="1">
          <mxGeometry x="385.96" y="32.5" width="19.04" height="19.04" as="geometry" />
        </mxCell>
      </root>
    </mxGraphModel>
  </diagram>
</mxfile>
